<?xml version="1.0" standalone="no"?>
<!DOCTYPE svg PUBLIC "-//W3C//DTD SVG 20010904//EN"
 "http://www.w3.org/TR/2001/REC-SVG-20010904/DTD/svg10.dtd">
<svg version="1.0" xmlns="http://www.w3.org/2000/svg"
 width="16.000000pt" height="16.000000pt" viewBox="0 0 16.000000 16.000000"
 preserveAspectRatio="xMidYMid meet">
<metadata>
Created by potrace 1.11, written by Peter Selinger 2001-2013
</metadata>
<g transform="translate(0.000000,16.000000) scale(0.000410,-0.000410)"
fill="#000000" stroke="none">
<path d="M14934 27373 c-49 -43 -100 -88 -114 -100 -14 -12 -34 -30 -46 -40
-12 -10 -52 -45 -90 -79 -38 -34 -148 -130 -244 -215 -238 -209 -223 -196
-330 -289 -52 -46 -97 -86 -100 -89 -3 -3 -54 -49 -115 -101 -60 -52 -112 -97
-115 -100 -3 -3 -59 -52 -125 -109 -66 -58 -124 -110 -130 -115 -5 -6 -39 -36
-75 -66 -36 -30 -69 -60 -75 -66 -5 -5 -64 -57 -130 -115 -66 -57 -136 -118
-155 -135 -19 -17 -80 -71 -135 -119 -55 -48 -131 -115 -170 -150 -38 -34 -88
-77 -110 -96 -22 -18 -63 -54 -90 -79 -28 -25 -81 -72 -119 -105 -38 -33 -74
-65 -80 -70 -6 -6 -60 -53 -121 -105 -60 -52 -112 -97 -115 -100 -3 -3 -41
-37 -85 -75 -44 -39 -82 -72 -85 -75 -3 -3 -43 -39 -90 -80 -47 -41 -87 -77
-90 -80 -3 -3 -39 -34 -80 -70 -41 -35 -77 -67 -80 -70 -3 -3 -39 -34 -80 -69
-41 -36 -82 -71 -90 -80 -9 -9 -45 -40 -80 -70 -36 -30 -72 -62 -81 -70 -8 -9
-42 -38 -74 -66 -32 -27 -66 -57 -75 -65 -8 -8 -47 -42 -85 -75 -38 -33 -88
-76 -110 -96 -22 -20 -85 -76 -140 -124 -55 -48 -129 -114 -165 -145 -36 -32
-80 -71 -99 -86 -18 -16 -56 -49 -84 -74 -55 -49 -56 -51 -147 -130 -35 -30
-105 -91 -155 -135 -121 -107 -215 -189 -245 -215 -14 -12 -56 -49 -94 -83
-39 -34 -90 -80 -115 -102 -25 -22 -51 -44 -57 -50 -6 -5 -38 -32 -70 -60 -32
-27 -65 -57 -74 -65 -8 -8 -103 -91 -210 -185 -107 -93 -200 -174 -206 -180
-19 -18 -148 -131 -194 -171 -25 -22 -61 -53 -80 -70 -19 -17 -80 -71 -135
-119 -55 -48 -113 -99 -130 -114 -16 -15 -84 -74 -150 -131 -66 -58 -122 -107
-125 -110 -7 -7 -326 -288 -364 -320 -16 -14 -37 -32 -46 -40 -8 -8 -31 -28
-50 -44 -19 -15 -55 -47 -80 -70 -25 -23 -189 -167 -365 -321 -176 -154 -336
-294 -355 -311 -31 -28 -160 -141 -276 -243 -105 -92 -182 -159 -224 -197 -25
-22 -137 -121 -250 -220 -262 -229 -270 -236 -290 -254 -9 -8 -50 -44 -91 -80
-41 -35 -76 -67 -79 -70 -3 -3 -54 -48 -115 -100 -60 -52 -112 -97 -115 -100
-3 -3 -40 -37 -84 -75 l-79 -70 -1242 0 -1242 0 -64 -55 c-35 -30 -82 -71
-104 -91 -22 -20 -53 -47 -70 -62 -58 -50 -72 -62 -136 -118 -66 -58 -289
-253 -393 -343 -32 -28 -64 -56 -70 -61 -6 -6 -45 -39 -86 -75 -41 -36 -84
-74 -96 -85 -11 -11 -34 -31 -50 -44 -48 -40 -326 -283 -369 -322 -22 -20 -56
-50 -75 -65 -19 -16 -42 -35 -50 -44 -8 -8 -44 -40 -80 -70 -35 -30 -72 -62
-80 -70 -9 -8 -45 -40 -81 -71 -132 -115 -405 -353 -445 -388 -22 -20 -69 -61
-104 -91 -35 -30 -71 -62 -80 -70 -9 -8 -45 -40 -80 -70 -35 -30 -71 -62 -80
-70 -9 -8 -91 -80 -183 -160 l-167 -145 0 -2447 0 -2448 19510 0 19510 0 0
2449 0 2449 -117 103 c-65 57 -133 118 -152 134 -18 17 -39 35 -45 40 -6 6
-42 37 -81 70 -38 33 -72 63 -75 66 -3 3 -68 61 -145 129 -77 67 -169 148
-205 180 -36 31 -105 93 -155 136 -49 43 -92 81 -95 84 -3 3 -39 34 -80 69
-41 36 -82 72 -91 80 -9 9 -47 43 -84 76 -146 127 -172 150 -244 214 -103 91
-167 147 -241 211 -35 30 -73 64 -84 75 -12 11 -50 45 -86 75 -36 30 -67 57
-70 60 -3 4 -66 59 -140 124 -74 66 -151 133 -170 150 -19 17 -109 96 -200
176 -91 80 -180 158 -199 175 -19 16 -42 37 -50 45 -9 8 -42 37 -74 64 l-58
49 -1212 0 c-1097 0 -1214 1 -1233 16 -20 15 -122 104 -168 146 -41 37 -159
140 -406 356 -135 117 -247 216 -250 219 -3 3 -75 66 -160 140 -85 74 -160
139 -166 145 -6 5 -37 33 -69 60 -32 28 -65 57 -74 66 -9 8 -122 107 -251 219
-129 113 -237 207 -240 210 -5 5 -122 107 -184 160 -16 14 -34 30 -40 36 -6 5
-36 32 -66 59 -93 81 -193 169 -204 180 -6 6 -58 50 -116 100 -58 49 -107 93
-110 96 -3 3 -79 70 -170 149 -91 79 -175 152 -187 164 -12 12 -28 26 -35 31
-7 6 -49 42 -93 81 -44 39 -93 82 -109 95 -16 13 -41 35 -56 49 -15 14 -55 50
-90 80 -35 30 -71 62 -80 70 -9 8 -45 40 -80 70 -36 30 -85 73 -110 96 -25 23
-81 72 -125 110 -44 37 -82 71 -85 74 -6 6 -73 65 -160 141 -122 106 -815 712
-885 774 -38 34 -88 77 -110 96 -22 19 -42 36 -45 39 -5 5 -147 130 -215 189
-115 99 -181 157 -185 161 -4 5 -358 315 -434 380 -16 14 -34 30 -40 35 -6 6
-51 46 -101 89 -49 44 -104 91 -121 106 -16 15 -104 92 -195 171 -90 79 -166
146 -169 149 -3 3 -36 32 -75 65 -38 33 -90 78 -115 101 -25 23 -81 72 -125
110 -44 37 -82 71 -85 74 -3 3 -36 32 -75 65 -38 33 -74 65 -80 71 -5 6 -44
39 -85 75 -41 35 -77 66 -80 69 -3 3 -36 32 -75 65 -38 33 -74 65 -80 71 -5 6
-80 71 -165 145 -146 126 -208 180 -234 204 -6 6 -82 73 -169 149 l-158 139
-32 -30 c-18 -17 -47 -43 -66 -59 -19 -16 -39 -34 -45 -39 -6 -6 -51 -46 -101
-89 -165 -145 -229 -201 -256 -226 -33 -30 -53 -48 -194 -170 -60 -52 -115
-99 -121 -105 -6 -5 -44 -39 -84 -75 -41 -36 -97 -85 -125 -110 -28 -25 -84
-74 -125 -110 -153 -135 -306 -269 -334 -295 -14 -13 -161 -142 -201 -176 -16
-14 -74 -65 -128 -113 -54 -47 -101 -86 -105 -86 -4 0 -21 12 -37 28 -33 30
-252 222 -299 262 -16 14 -39 34 -51 45 -70 63 -93 83 -125 109 -19 16 -64 54
-100 86 -63 55 -177 155 -310 270 -35 30 -68 60 -74 65 -6 6 -42 37 -81 70
-67 57 -125 109 -149 130 -6 6 -42 37 -81 70 -38 33 -76 67 -85 75 -9 8 -30
26 -46 40 -16 14 -99 86 -184 160 -85 74 -161 139 -168 145 -7 5 -27 24 -45
40 -36 33 -212 186 -287 250 -26 22 -113 98 -194 168 l-147 129 -57 -48 c-31
-27 -59 -51 -62 -55 -3 -3 -43 -39 -90 -80 -47 -40 -98 -86 -115 -100 -16 -15
-55 -48 -85 -74 -30 -26 -68 -59 -85 -74 -16 -14 -66 -58 -110 -96 -44 -39
-85 -74 -91 -80 -13 -12 -60 -53 -439 -385 -355 -311 -368 -322 -600 -525 -99
-87 -211 -185 -249 -219 -39 -33 -90 -79 -115 -101 -26 -22 -48 -42 -51 -45
-3 -3 -39 -34 -80 -70 -41 -36 -86 -75 -100 -87 -14 -12 -34 -30 -46 -40 -12
-10 -50 -44 -85 -75 -35 -31 -75 -66 -88 -77 l-23 -20 -52 42 c-28 23 -53 45
-56 48 -3 3 -41 37 -85 75 -83 72 -111 96 -204 178 -95 83 -112 97 -261 226
-80 68 -147 127 -150 130 -3 3 -39 34 -80 70 -41 36 -77 67 -80 70 -3 3 -54
48 -115 99 -60 52 -114 99 -120 105 -5 6 -26 24 -45 40 -19 16 -62 53 -95 81
-33 29 -118 104 -190 166 -146 127 -367 319 -405 352 -14 13 -56 49 -95 82
-38 33 -72 63 -75 66 -4 4 -483 420 -694 603 -32 28 -64 56 -70 61 -6 6 -29
26 -52 45 -22 19 -69 60 -104 91 -85 74 -387 336 -470 408 -119 104 -155 136
-158 144 -7 15 -21 5 -108 -70z"/>
</g>
</svg>
